<?xml version="1.0" encoding="utf-8"?>
<!-- Generator: Adobe Illustrator 23.0.3, SVG Export Plug-In . SVG Version: 6.00 Build 0)  -->
<svg version="1.0" id="Layer_1" xmlns="http://www.w3.org/2000/svg" xmlns:xlink="http://www.w3.org/1999/xlink" x="0px" y="0px"
	 viewBox="0 0 17.98 17.92" style="enable-background:new 0 0 17.98 17.92;" xml:space="preserve">
<style type="text/css">
	.st0{fill:#fff;}
</style>
<path class="st0" d="M13.64,6.39l-0.53-0.81l2.93-2.93l1.04,1.04l0.71-0.71l-1.04-1.04l1.23-1.23L17.26,0l-1.23,1.23l-1.1-1.1
	l-0.71,0.71l1.1,1.1L12.4,4.86l-0.81-0.54c-2.95-1.99-6.91-1.6-9.42,0.91c-2.9,2.9-2.9,7.62,0.01,10.53
	c2.89,2.89,7.61,2.89,10.51-0.01C15.17,13.26,15.57,9.33,13.64,6.39z M2.91,15.05c-2.5-2.5-2.5-6.58,0-9.09
	c2.51-2.5,6.58-2.5,9.08,0c2.51,2.5,2.51,6.58,0,9.09C9.48,17.55,5.41,17.55,2.91,15.05z"/>
</svg>
