<?xml version="1.0" encoding="utf-8"?>
<!-- Generator: Adobe Illustrator 23.0.3, SVG Export Plug-In . SVG Version: 6.00 Build 0)  -->
<svg version="1.0" id="Layer_1" xmlns="http://www.w3.org/2000/svg" xmlns:xlink="http://www.w3.org/1999/xlink" x="0px" y="0px"
	 viewBox="0 0 14.88 23.27" style="enable-background:new 0 0 14.88 23.27;" xml:space="preserve">
<style type="text/css">
	.st0{fill:#DFE7EA;}
</style>
<path class="st0" d="M8,14.91l0.94-0.2c3.44-0.71,5.94-3.78,5.94-7.28c0-4.1-3.33-7.44-7.43-7.44C3.34,0,0,3.34,0,7.44
	c0,3.56,2.53,6.63,6.03,7.3l0.96,0.18v6.38L5.38,19.7l-0.71,0.71l2.15,2.14h0l0.71,0.71h0l0,0l0.71-0.71h0l2.14-2.14L9.67,19.7
	L8,21.38V14.91z M1.04,7.44c0-3.54,2.88-6.42,6.42-6.42c3.54,0,6.42,2.88,6.42,6.42s-2.88,6.42-6.42,6.42
	C3.92,13.86,1.04,10.98,1.04,7.44z"/>
</svg>
